<?xml version="1.0" encoding="UTF-8"?>
<svg width="1800" height="900" version="1.1" viewBox="0 0 1800 900" xmlns="http://www.w3.org/2000/svg">
 <defs>
  <style>.wm { font-family: Poppins, Inter, system-ui, -apple-system, Segoe UI, Roboto; font-weight: 700; }
      .sub { font-family: Poppins, Inter, system-ui, -apple-system, Segoe UI, Roboto; font-weight: 500; }</style>
  <linearGradient id="connGrad" x1="72.601" x2="474.03" y1="845.64" y2="845.64" gradientTransform="scale(3.0551 .32733)" gradientUnits="userSpaceOnUse">
   <stop stop-color="#0D47A1" offset="0"/>
   <stop stop-color="#1159BF" offset=".55"/>
   <stop stop-color="#59A7FF" offset="1"/>
  </linearGradient>
  <filter id="connGlow" x="-.024103" y="-.376" width="1.0482" height="1.752">
   <feGaussianBlur result="b" stdDeviation="8"/>
   <feColorMatrix in="b" values="0 0 0 0 0.07                 0 0 0 0 0.45                 0 0 0 0 0.95                 0 0 0 0 0.65 0"/>
  </filter>
 </defs>
 <g fill="none">
  <g id="Background">
   <rect width="1800" height="900" fill="none"/>
  </g>
  <g id="Wordmark">
   <text class="wm" x="265.6145" y="515.5498" fill="none" font-size="146.67px" letter-spacing=".5"><tspan fill="none">EasyCustoms360</tspan></text>
  </g>
  <g id="ConnectionArc">
   <path d="m250 380c290-100 890-100 1170 0" filter="url(#connGlow)" stroke="url(#connGrad)" stroke-linecap="round" stroke-width="18"/>
   <path d="m251.16 411.44c290-100 890-100 1170 0" opacity=".85" stroke="#cfe3ff" stroke-linecap="round" stroke-width="5"/>
   <circle cx="610" cy="325" r="6" opacity=".95"/>
   <circle cx="880" cy="310" r="5" opacity=".9"/>
   <circle cx="1160" cy="320" r="5" opacity=".85"/>
   <circle cx="1320" cy="355" r="4.5" opacity=".8"/>
   <g id="ConsultantHex" transform="translate(250,380)">
    <polygon points="-15.6 9 -15.6 -9 0 -18 15.6 -9 15.6 9 0 18" stroke="#1159bf" stroke-width="4"/>
    <circle r="4"/>
   </g>
   <g id="ClientRing" transform="translate(1423.5,409.11)">
    <circle r="12" stroke="#1159bf" stroke-width="4"/>
    <circle r="5"/>
   </g>
   <g id="SignalWaves" transform="translate(1422.3,410.27)" stroke="#1159bf" stroke-linecap="round" stroke-width="6">
    <path d="m18-8a28 28 0 0 1 0 16" opacity=".55"/>
    <path d="m36-12a44 44 0 0 1 0 24" opacity=".35"/>
    <path d="m56-16a64 64 0 0 1 0 32" opacity=".2"/>
   </g>
  </g>
  <g id="Guides">
   <rect x="224" y="320" width="1260" height="280" fill="none" opacity=".25" stroke="#1159bf" stroke-dasharray="10, 8" stroke-width="2"/>
  </g>
 </g>
</svg>
