<?xml version="1.0" encoding="UTF-8"?>
<svg width="96" height="1600" version="1.1" viewBox="0 0 96 1600" xmlns="http://www.w3.org/2000/svg" xmlns:xlink="http://www.w3.org/1999/xlink">
 <defs>
  <linearGradient id="fade-left">
   <stop offset="0"/>
   <stop stop-color="#fff" offset=".55"/>
   <stop stop-color="#fff" offset="1"/>
  </linearGradient>
  <mask id="leftFadeMask">
   <rect width="96" height="1600" fill="url(#fade-left)"/>
  </mask>
  <style type="text/css"><![CDATA[
      /* Single color control: change this hex to recolor everything */
      .t1   { stroke: #888888; stroke-width: .9;  fill: none; opacity: .9; }
      .t2   { stroke: #888888; stroke-width: .9;  fill: none; opacity: .85; stroke-dasharray: 6 4; }
      .t3   { stroke: #888888; stroke-width: 1.0; fill: none; opacity: .8;  stroke-dasharray: 2 3; }
      .mark { fill:   #888888; }
      .node { fill:   #888888; opacity: .8; }
      .node-faint { fill: #888888; opacity: .45; }
      .bg-dot{ fill:#000000; opacity:.05; }
    ]]></style>
  <pattern id="micro-dots" width="12" height="12" patternUnits="userSpaceOnUse">
   <rect width="12" height="12" fill="transparent"/>
   <circle class="bg-dot" cx="3" cy="3" r=".8"/>
   <circle class="bg-dot" cx="9" cy="9" r=".8"/>
  </pattern>
  <symbol id="icon-server" viewBox="0 0 24 24">
   <rect x="3" y="4" width="18" height="5" rx="1.2" fill="none" stroke="#888" stroke-width="1.2"/>
   <rect x="3" y="10" width="18" height="5" rx="1.2" fill="none" stroke="#888" stroke-width="1.2"/>
   <rect x="3" y="16" width="18" height="5" rx="1.2" fill="none" stroke="#888" stroke-width="1.2"/>
  </symbol>
  <symbol id="icon-network" viewBox="0 0 24 24">
   <circle cx="6" cy="18" r="2" fill="#888"/>
   <circle cx="18" cy="18" r="2" fill="#888"/>
   <circle cx="12" cy="6" r="2" fill="#888"/>
   <path d="m7.5 16.5 3.3-8.9m5.7 8.9-3.3-8.9m-5.4 10h8.4" fill="none" stroke="#888"/>
  </symbol>
  <symbol id="icon-platform" viewBox="0 0 24 24">
   <rect x="3" y="5" width="18" height="4" rx="1.2" fill="none" stroke="#888" stroke-width="1.2"/>
   <rect x="5" y="10" width="14" height="4" rx="1.2" fill="none" stroke="#888" stroke-width="1.2"/>
   <rect x="7" y="15" width="10" height="4" rx="1.2" fill="none" stroke="#888" stroke-width="1.2"/>
  </symbol>
  <symbol id="icon-globe-grid" viewBox="0 0 24 24">
   <circle cx="12" cy="12" r="9" fill="none" stroke="#888" stroke-width="1.2"/>
   <path d="m3 12h18" stroke="#888"/>
   <path d="m12 3v18" stroke="#888"/>
   <path d="m4.5 8h15m-15 8h15" stroke="#888" stroke-width=".9"/>
   <path d="m8 4.5v15m8-15v15" stroke="#888" stroke-width=".9"/>
  </symbol>
 </defs>
 <g mask="url(#leftFadeMask)">
  <rect width="96" height="1600" fill="url(#micro-dots)"/>
  <path class="t1" d="m30 180 18-12 14-12 12-12"/>
  <path class="t2" d="m28 380 16-12 14-14 16-14"/>
  <path class="t1" d="m26 560h16v-12h16l16-12"/>
  <path class="t3" d="m28 760 10-10 10 10 10-10 16-12"/>
  <path class="t1" d="m26 980 14-10 16-12 18-12"/>
  <path class="t2" d="m24 1200 16-12 18-14 16-12"/>
  <g transform="translate(0,40)">
   <use x="58" width="24" height="24" xlink:href="#icon-network"/>
   <rect class="mark" x="72" y="34" width="3" height="3"/>
  </g>
  <g transform="translate(0,300)">
   <use x="58" width="24" height="24" xlink:href="#icon-server"/>
   <rect class="mark" x="72" y="34" width="3" height="3"/>
  </g>
  <g transform="translate(0,560)">
   <use x="58" width="24" height="24" xlink:href="#icon-globe-grid"/>
   <rect class="mark" x="72" y="34" width="3" height="3"/>
  </g>
  <g transform="translate(0,820)">
   <use x="58" width="24" height="24" xlink:href="#icon-platform"/>
   <rect class="mark" x="72" y="34" width="3" height="3"/>
  </g>
  <g transform="translate(0,1080)">
   <use x="58" width="24" height="24" xlink:href="#icon-network"/>
   <rect class="mark" x="72" y="34" width="3" height="3"/>
  </g>
  <g transform="translate(0,1340)">
   <use x="58" width="24" height="24" xlink:href="#icon-server"/>
   <rect class="mark" x="72" y="34" width="3" height="3"/>
  </g>
  <circle class="node" cx="70" cy="110" r="1.6"/>
  <circle class="node-faint" cx="66" cy="120" r="1.3"/>
  <circle class="node-faint" cx="62" cy="130" r="1.1"/>
  <circle class="node-faint" cx="58" cy="140" r="1"/>
  <circle class="node" cx="70" cy="320" r="1.6"/>
  <circle class="node-faint" cx="64" cy="330" r="1.2"/>
  <circle class="node-faint" cx="58" cy="338" r="1"/>
  <circle class="node" cx="70" cy="548" r="1.6"/>
  <circle class="node-faint" cx="64" cy="552" r="1.2"/>
  <circle class="node-faint" cx="58" cy="556" r="1"/>
  <circle class="node" cx="70" cy="780" r="1.6"/>
  <circle class="node-faint" cx="64" cy="792" r="1.2"/>
  <circle class="node-faint" cx="58" cy="804" r="1"/>
  <circle class="node" cx="70" cy="1e3" r="1.6"/>
  <circle class="node-faint" cx="64" cy="1014" r="1.2"/>
  <circle class="node-faint" cx="58" cy="1028" r="1"/>
  <circle class="node" cx="70" cy="1220" r="1.6"/>
  <circle class="node-faint" cx="64" cy="1240" r="1.2"/>
  <circle class="node-faint" cx="58" cy="1260" r="1"/>
 </g>
</svg>
